<?xml version="1.0" encoding="utf-8"?>
<svg xmlns="http://www.w3.org/2000/svg" viewBox="110.413 114.575 220.826 223.602" xmlns:bx="https://boxy-svg.com" width="220.826px" height="223.602px"><defs><path id="path-0" d="M 111.221 334.27 C 128.386 324.464 137.915 309.878 151.341 305.403 C 160.487 299.817 168.502 293.265 175.805 287.789 C 181.69 282.393 185.292 276.082 189.015 273.6 C 189.994 268.008 199.398 263.055 201.247 258.432 C 206.362 253.317 211.366 247.491 213.968 242.286 C 215.616 238.99 216.864 232.521 218.861 231.522 C 219.197 230.544 221.366 226.57 222.286 225.651 C 226.625 222.595 223.437 220.786 225.221 226.14 C 228.316 232.818 234.077 235.87 237.942 240.329 C 246.696 250.429 254.91 261.21 264.363 270.664 C 273.265 279.077 279.7 285.682 283.445 293.171 C 289.89 298.494 293.942 302.289 298.612 305.403 C 302.849 309.151 304.08 313.805 306.93 316.656 C 310.287 321.446 316.507 322.319 319.651 325.463 C 322.264 326.28 326.282 328.398 326.99 328.398 C 327.479 329.089 331.548 333.291 331.883 333.291 C 333.492 335.532 334.596 336.004 336.286 337.695 L 337.265 338.184 C 337.265 339.687 339.186 341.12 340.69 341.12" style="fill: none;"/><path id="path-1" d="M 160.1479841599775 228.0973846706658 L 162.17771431482979 189.53262787012113" style="fill: none;"/><path id="path-2" d="M 215.43586347168502 162.04548899795353 L 259.6069772171824 163.56860680853484" style="fill: none;"/><path id="path-3" d="M 280.99849330883603 215.86555213868203 L 279.9688920399387 253.9613489626758" style="fill: none;"/></defs><rect x="110.413" y="111.801" width="220.826" height="223.602" style="stroke: rgb(0, 0, 0); fill: rgb(255, 255, 255);" id="object-1"/><text style="fill: rgb(51, 51, 51); font-family: Arial, sans-serif; font-size: 28px; white-space: pre;"><textPath href="#path-0"> </textPath></text><text style="white-space: pre; fill: rgb(51, 51, 51); font-family: Arial, sans-serif; font-size: 28px;" x="244.303" y="231.522" id="object-2"> </text><text style="white-space: pre; fill: rgb(51, 51, 51); font-family: Arial, sans-serif; font-size: 28px;" x="210.054" y="232.99" id="object-3"> </text><path d="M 280.329 223.204 A 60 60 0 0 1 220.329 283.204 A 60 60 0 0 1 160.329 223.204 A 60 60 0 0 1 220.329 163.204 A 60 60 0 0 1 280.329 223.204 Z" style="stroke: rgb(0, 0, 0); fill: rgb(255, 204, 0);" id="object-4"/><text style="fill: rgb(51, 51, 51); font-family: Arial, sans-serif; font-size: 48px; white-space: pre; transform-box: fill-box; transform-origin: 50% 50%;" transform="matrix(1, 0, 0, 1, -6.249808, 11.74258)" id="object-5"><textPath href="#path-1">E</textPath></text><text style="fill: rgb(51, 51, 51); font-family: Arial, sans-serif; font-size: 48px; white-space: pre;" transform="matrix(1, 0, 0, 1, -13.210633, -6.725024)" id="object-6"><textPath href="#path-2">Q</textPath></text><text style="fill: rgb(51, 51, 51); font-family: Arial, sans-serif; font-size: 49px; white-space: pre;" transform="matrix(1, 0, 0, 1, 5.73287, -9.785466)" id="object-7"><textPath href="#path-3">S</textPath></text><ellipse style="stroke: rgb(0, 0, 0); fill: rgb(3, 0, 0);" cx="200.758" cy="214.642" rx="5.871" ry="21.773" id="object-8"/><ellipse style="stroke: rgb(0, 0, 0);" cx="237.453" cy="215.376" rx="5.871" ry="21.039" id="object-9"/><path style="fill: rgb(3, 0, 0);" d="M 189.015 252.072 C 192.376 257.113 193.138 265.491 196.843 269.196 C 198.027 270.38 200.458 270.555 201.247 272.132 C 202.474 274.586 216.408 273.6 219.35 273.6 C 237.269 273.6 251.153 268.044 251.153 250.604" id="object-0"/></svg>